<svg xmlns="http://www.w3.org/2000/svg" viewBox="0 0 128 128" width="128" height="128">
  <title>Dwellings — stage 32 of 59: industrial back-to-backs (19 buildings)</title>
  <!-- Generated by design/generate-dwellings.mjs — edit the generator, not this. -->
  <path d="M70.49 66.62L104.8 80.48M63.27 70.96L59.4 107.76M57.15 65.46L20.96 73.15M61.61 57.42L48.95 22.65M69.36 59.5L97.71 35.72" stroke="#95897c" stroke-width="4.6" stroke-linecap="round" opacity="0.4" fill="none"/>
  <circle cx="64" cy="64" r="30" fill="none" stroke="#95897c" stroke-width="3.6799999999999997" opacity="0.32000000000000006"/>
  <circle cx="64" cy="64" r="40" fill="none" stroke="#95897c" stroke-width="3.6799999999999997" opacity="0.32000000000000006"/>
  <path d="M18.94 90.63L113.94 48.33" stroke="#4a4640" stroke-width="3.6" opacity=".75" fill="none"/>
  <path d="M18.94 90.63L113.94 48.33" stroke="#8f8a82" stroke-width="1.2" opacity=".85" stroke-dasharray="2 4" fill="none"/>
  <g>
    <g transform="rotate(0 64 64)">
      <rect x="56.5" y="60" width="18" height="14" rx="1.5" fill="#000" opacity="0.28"/>
      <rect x="55" y="57" width="18" height="14" rx="1.5" fill="#7b4a3a" stroke="#31261b" stroke-width="2"/>
      <rect x="54.8" y="62.08" width="18.4" height="8.96" rx="1.5" fill="#5b5751" stroke="#31261b" stroke-width="1.4"/>
      <path d="M58.48 64.08V69.04M62.16 64.08V69.04M65.84 64.08V69.04M69.52 64.08V69.04" stroke="#3a3632" stroke-width="1" opacity="0.6" fill="none"/>
      <rect x="60" y="54" width="8" height="8" rx="1.5" fill="#8d5b46" stroke="#31261b" stroke-width="2"/>
      <circle cx="64" cy="58" r="2.2" fill="#efe6cc" stroke="#3a2b22" stroke-width="1.2"/>
    </g>
    <g transform="rotate(18 81.12 76.09)">
      <rect x="76.62" y="73.59" width="12" height="10" rx="1.5" fill="#000" opacity="0.28"/>
      <rect x="75.12" y="71.09" width="12" height="10" rx="1.5" fill="#7a4a38" stroke="#31261b" stroke-width="2"/>
      <path d="M77.52 73.09V79.09M79.92 73.09V79.09M82.32 73.09V79.09M84.72 73.09V79.09" stroke="#41372f" stroke-width="1.2" opacity="0.6" fill="none"/>
      <path d="M78.12 76.09H84.12" stroke="#a3705a" stroke-width="2" stroke-linecap="round" fill="none"/>
      <circle cx="77.52" cy="76.09" r="1.5" fill="#2f2b28"/>
      <circle cx="84.72" cy="76.09" r="1.5" fill="#2f2b28"/>
    </g>
    <g transform="rotate(21 84.1 53.78)">
      <rect x="79.1" y="50.78" width="13" height="11" rx="1.5" fill="#000" opacity="0.28"/>
      <rect x="77.6" y="48.28" width="13" height="11" rx="1.5" fill="#8a4f3a" stroke="#31261b" stroke-width="2"/>
      <rect x="80.6" y="51.28" width="7" height="5" rx="1.5" fill="#6b3d2d" stroke="#31261b" stroke-width="1"/>
      <circle cx="84.1" cy="53.78" r="2.2" fill="#cdd8de" stroke="#3a3632" stroke-width="1.2"/>
    </g>
    <g transform="rotate(14 45.1 72.67)">
      <rect x="40.6" y="70.67" width="12" height="9" rx="1.5" fill="#000" opacity="0.28"/>
      <rect x="39.1" y="68.17" width="12" height="9" rx="1.5" fill="#7a4a38" stroke="#31261b" stroke-width="2"/>
      <path d="M41.5 70.17V75.17M43.9 70.17V75.17M46.3 70.17V75.17M48.7 70.17V75.17" stroke="#41372f" stroke-width="1.2" opacity="0.6" fill="none"/>
      <path d="M42.1 72.67H48.1" stroke="#a3705a" stroke-width="2" stroke-linecap="round" fill="none"/>
      <circle cx="41.5" cy="72.67" r="1.5" fill="#2f2b28"/>
      <circle cx="48.7" cy="72.67" r="1.5" fill="#2f2b28"/>
    </g>
    <g transform="rotate(-2 63.18 43.58)">
      <rect x="58.18" y="42.58" width="13" height="8" rx="1.5" fill="#000" opacity="0.28"/>
      <rect x="56.68" y="39.58" width="13" height="8" rx="1.5" fill="#7b4a3a" stroke="#31261b" stroke-width="2"/>
      <path d="M58.68 40.58V46.58M61.68 40.58V46.58M64.68 40.58V46.58M67.68 40.58V46.58" stroke="#4a352b" stroke-width="1" opacity="0.55" fill="none"/>
      <circle cx="65.48" cy="40.18" r="2.56" fill="#e8eef2" opacity=".16"/><circle cx="63.48" cy="36.98" r="3.52" fill="#e8eef2" opacity=".11"/><circle cx="60.68" cy="33.78" r="4.48" fill="#e8eef2" opacity=".07"/><circle cx="66.68" cy="42.58" r="2.6" fill="#6b4a3a" stroke="#31261b" stroke-width="1.6"/><circle cx="66.68" cy="42.58" r="1.09" fill="#2b2420"/>
    </g>
    <g transform="rotate(-18 63.38 81.41)">
      <rect x="59.38" y="79.41" width="11" height="9" rx="1.5" fill="#000" opacity="0.28"/>
      <rect x="57.88" y="76.91" width="11" height="9" rx="1.5" fill="#7a4a38" stroke="#31261b" stroke-width="2"/>
      <path d="M60.08 78.91V83.91M62.28 78.91V83.91M64.48 78.91V83.91M66.68 78.91V83.91" stroke="#41372f" stroke-width="1.2" opacity="0.6" fill="none"/>
      <path d="M60.88 81.41H65.88" stroke="#a3705a" stroke-width="2" stroke-linecap="round" fill="none"/>
      <circle cx="60.08" cy="81.41" r="1.5" fill="#2f2b28"/>
      <circle cx="66.68" cy="81.41" r="1.5" fill="#2f2b28"/>
    </g>
    <g transform="rotate(0 44.57 56.41)">
      <rect x="39.07" y="52.91" width="14" height="12" rx="1.5" fill="#000" opacity="0.28"/>
      <rect x="37.57" y="50.41" width="14" height="12" rx="1.5" fill="#7a5344" stroke="#31261b" stroke-width="2"/>
      <path d="M39.9 52.41V60.41M42.24 52.41V60.41M44.57 52.41V60.41M46.9 52.41V60.41M49.24 52.41V60.41" stroke="#4a352b" stroke-width="1" opacity="0.6" fill="none"/>
      <path d="M40.57 56.41H48.57" stroke="#a67a63" stroke-width="2" stroke-linecap="round" fill="none"/>
    </g>
    <g transform="rotate(9 94.91 76.22)">
      <rect x="91.41" y="74.72" width="10" height="8" rx="1.5" fill="#000" opacity="0.28"/>
      <rect x="89.91" y="72.22" width="10" height="8" rx="1.5" fill="#7a4a38" stroke="#31261b" stroke-width="2"/>
      <path d="M91.91 74.22V78.22M93.91 74.22V78.22M95.91 74.22V78.22M97.91 74.22V78.22" stroke="#41372f" stroke-width="1.2" opacity="0.6" fill="none"/>
      <path d="M92.91 76.22H96.91" stroke="#a3705a" stroke-width="2" stroke-linecap="round" fill="none"/>
      <circle cx="91.91" cy="76.22" r="1.5" fill="#2f2b28"/>
      <circle cx="97.91" cy="76.22" r="1.5" fill="#2f2b28"/>
    </g>
    <g transform="rotate(-20 36.23 44.99)">
      <rect x="32.23" y="43.99" width="11" height="7" rx="1.5" fill="#000" opacity="0.28"/>
      <rect x="30.73" y="41.49" width="11" height="7" rx="1.5" fill="#7a4a38" stroke="#31261b" stroke-width="2"/>
      <path d="M32.93 43.49V46.49M35.13 43.49V46.49M37.33 43.49V46.49M39.53 43.49V46.49" stroke="#41372f" stroke-width="1.2" opacity="0.6" fill="none"/>
      <path d="M33.73 44.99H38.73" stroke="#a3705a" stroke-width="2" stroke-linecap="round" fill="none"/>
      <circle cx="32.93" cy="44.99" r="1.5" fill="#2f2b28"/>
      <circle cx="39.53" cy="44.99" r="1.5" fill="#2f2b28"/>
    </g>
    <g transform="rotate(-9 67.54 93.6)">
      <rect x="62.54" y="90.6" width="13" height="11" rx="1.5" fill="#000" opacity="0.28"/>
      <rect x="61.04" y="88.1" width="13" height="11" rx="1.5" fill="#4a423a" stroke="#31261b" stroke-width="2"/>
      <circle cx="64.94" cy="93.6" r="3" fill="#231f1b"/>
      <circle cx="69.88" cy="94.6" r="2.4" fill="#231f1b"/>
      <circle cx="67.8" cy="90.96" r="2" fill="#2e2822"/>
    </g>
    <g transform="rotate(-3 77.38 32.37)">
      <rect x="73.38" y="31.37" width="11" height="7" rx="1.5" fill="#000" opacity="0.28"/>
      <rect x="71.88" y="28.87" width="11" height="7" rx="1.5" fill="#7a4a38" stroke="#31261b" stroke-width="2"/>
      <path d="M74.08 30.87V33.87M76.28 30.87V33.87M78.48 30.87V33.87M80.68 30.87V33.87" stroke="#41372f" stroke-width="1.2" opacity="0.6" fill="none"/>
      <path d="M74.88 32.37H79.88" stroke="#a3705a" stroke-width="2" stroke-linecap="round" fill="none"/>
      <circle cx="74.08" cy="32.37" r="1.5" fill="#2f2b28"/>
      <circle cx="80.68" cy="32.37" r="1.5" fill="#2f2b28"/>
    </g>
    <g transform="rotate(8 31.12 69.19)">
      <rect x="26.62" y="66.19" width="12" height="11" rx="1.5" fill="#000" opacity="0.28"/>
      <rect x="25.12" y="63.69" width="12" height="11" rx="1.5" fill="#5f5a53" stroke="#31261b" stroke-width="2"/>
      <path d="M27.52 65.69V72.69M29.92 65.69V72.69M32.32 65.69V72.69M34.72 65.69V72.69" stroke="#8b857c" stroke-width="1" opacity="0.6" fill="none"/>
    </g>
    <g transform="rotate(16 83.53 88.78)">
      <rect x="79.53" y="86.78" width="11" height="9" rx="1.5" fill="#000" opacity="0.28"/>
      <rect x="78.03" y="84.28" width="11" height="9" rx="1.5" fill="#7a4a38" stroke="#31261b" stroke-width="2"/>
      <path d="M80.23 86.28V91.28M82.43 86.28V91.28M84.63 86.28V91.28M86.83 86.28V91.28" stroke="#41372f" stroke-width="1.2" opacity="0.6" fill="none"/>
      <path d="M81.03 88.78H86.03" stroke="#a3705a" stroke-width="2" stroke-linecap="round" fill="none"/>
      <circle cx="80.23" cy="88.78" r="1.5" fill="#2f2b28"/>
      <circle cx="86.83" cy="88.78" r="1.5" fill="#2f2b28"/>
    </g>
    <g transform="rotate(-17 52.17 33.59)">
      <rect x="48.17" y="32.09" width="11" height="8" rx="1.5" fill="#000" opacity="0.28"/>
      <rect x="46.67" y="29.59" width="11" height="8" rx="1.5" fill="#7a4a38" stroke="#31261b" stroke-width="2"/>
      <path d="M48.87 31.59V35.59M51.07 31.59V35.59M53.27 31.59V35.59M55.47 31.59V35.59" stroke="#41372f" stroke-width="1.2" opacity="0.6" fill="none"/>
      <path d="M49.67 33.59H54.67" stroke="#a3705a" stroke-width="2" stroke-linecap="round" fill="none"/>
      <circle cx="48.87" cy="33.59" r="1.5" fill="#2f2b28"/>
      <circle cx="55.47" cy="33.59" r="1.5" fill="#2f2b28"/>
    </g>
    <g transform="rotate(14 43.36 84.39)">
      <rect x="38.86" y="82.39" width="12" height="9" rx="1.5" fill="#000" opacity="0.28"/>
      <rect x="37.36" y="79.89" width="12" height="9" rx="1.5" fill="#5f5a53" stroke="#31261b" stroke-width="2"/>
      <path d="M39.16 80.89V87.89M41.96 80.89V87.89M44.76 80.89V87.89M47.56 80.89V87.89" stroke="#93a6b2" stroke-width="1.4" opacity="0.5" fill="none"/>
      <circle cx="38.51" cy="83.69" r="2.88" fill="#e8eef2" opacity=".16"/><circle cx="36.26" cy="80.09" r="3.96" fill="#e8eef2" opacity=".11"/><circle cx="33.11" cy="76.49" r="5.04" fill="#e8eef2" opacity=".07"/><circle cx="39.86" cy="86.39" r="2.6" fill="#6b4a3a" stroke="#31261b" stroke-width="1.6"/><circle cx="39.86" cy="86.39" r="1.09" fill="#2b2420"/>
      <circle cx="38.51" cy="79.69" r="2.88" fill="#e8eef2" opacity=".16"/><circle cx="36.26" cy="76.09" r="3.96" fill="#e8eef2" opacity=".11"/><circle cx="33.11" cy="72.49" r="5.04" fill="#e8eef2" opacity=".07"/><circle cx="39.86" cy="82.39" r="2.6" fill="#6b4a3a" stroke="#31261b" stroke-width="1.6"/><circle cx="39.86" cy="82.39" r="1.09" fill="#2b2420"/>
    </g>
    <g transform="rotate(-4 89.14 40.98)">
      <rect x="84.64" y="39.48" width="12" height="8" rx="1.5" fill="#000" opacity="0.28"/>
      <rect x="83.14" y="36.98" width="12" height="8" rx="1.5" fill="#7a4a38" stroke="#31261b" stroke-width="2"/>
      <path d="M85.54 38.98V42.98M87.94 38.98V42.98M90.34 38.98V42.98M92.74 38.98V42.98" stroke="#41372f" stroke-width="1.2" opacity="0.6" fill="none"/>
      <path d="M86.14 40.98H92.14" stroke="#a3705a" stroke-width="2" stroke-linecap="round" fill="none"/>
      <circle cx="85.54" cy="40.98" r="1.5" fill="#2f2b28"/>
      <circle cx="92.74" cy="40.98" r="1.5" fill="#2f2b28"/>
    </g>
    <g transform="rotate(-17 99.16 87.88)">
      <rect x="94.66" y="85.88" width="12" height="9" rx="1.5" fill="#000" opacity="0.28"/>
      <rect x="93.16" y="83.38" width="12" height="9" rx="1.5" fill="#9a8468" stroke="#31261b" stroke-width="2"/>
      <circle cx="95.36" cy="85.58" r="1.3" fill="#e0d3b6"/><circle cx="95.36" cy="90.18" r="1.3" fill="#e0d3b6"/><circle cx="97.89" cy="85.58" r="1.3" fill="#e0d3b6"/><circle cx="97.89" cy="90.18" r="1.3" fill="#e0d3b6"/><circle cx="100.43" cy="85.58" r="1.3" fill="#e0d3b6"/><circle cx="100.43" cy="90.18" r="1.3" fill="#e0d3b6"/><circle cx="102.96" cy="85.58" r="1.3" fill="#e0d3b6"/><circle cx="102.96" cy="90.18" r="1.3" fill="#e0d3b6"/><circle cx="95.36" cy="87.88" r="1.3" fill="#e0d3b6"/><circle cx="102.96" cy="87.88" r="1.3" fill="#e0d3b6"/>
      <rect x="96.56" y="86.78" width="5.2" height="2.2" rx="1.5" fill="#7a6650" stroke="#31261b" stroke-width="1"/>
    </g>
    <g transform="rotate(7 102.65 42.63)">
      <rect x="99.15" y="42.13" width="10" height="6" rx="1.5" fill="#000" opacity="0.28"/>
      <rect x="97.65" y="39.63" width="10" height="6" rx="1.5" fill="#7a4a38" stroke="#31261b" stroke-width="2"/>
      <path d="M99.65 41.63V43.63M101.65 41.63V43.63M103.65 41.63V43.63M105.65 41.63V43.63" stroke="#41372f" stroke-width="1.2" opacity="0.6" fill="none"/>
      <path d="M100.65 42.63H104.65" stroke="#a3705a" stroke-width="2" stroke-linecap="round" fill="none"/>
      <circle cx="99.65" cy="42.63" r="1.5" fill="#2f2b28"/>
      <circle cx="105.65" cy="42.63" r="1.5" fill="#2f2b28"/>
    </g>
    <g transform="rotate(14 27.16 87.58)">
      <rect x="23.16" y="87.08" width="11" height="6" rx="1.5" fill="#000" opacity="0.28"/>
      <rect x="21.66" y="84.58" width="11" height="6" rx="1.5" fill="#7a4a38" stroke="#31261b" stroke-width="2"/>
      <path d="M23.86 86.58V88.58M26.06 86.58V88.58M28.26 86.58V88.58M30.46 86.58V88.58" stroke="#41372f" stroke-width="1.2" opacity="0.6" fill="none"/>
      <path d="M24.66 87.58H29.66" stroke="#a3705a" stroke-width="2" stroke-linecap="round" fill="none"/>
      <circle cx="23.86" cy="87.58" r="1.5" fill="#2f2b28"/>
      <circle cx="30.46" cy="87.58" r="1.5" fill="#2f2b28"/>
    </g>
  </g>
</svg>
