<svg xmlns="http://www.w3.org/2000/svg" viewBox="0 0 128 128" width="128" height="128">
  <title>Dwellings — stage 53 of 59: futuristic tokamak (29 buildings)</title>
  <!-- Generated by design/generate-dwellings.mjs — edit the generator, not this. -->
  <path d="M70.49 66.62L104.8 80.48M63.27 70.96L59.4 107.76M57.15 65.46L20.96 73.15M61.61 57.42L48.95 22.65M69.36 59.5L97.71 35.72" stroke="#39434e" stroke-width="5.6" stroke-linecap="round" opacity="0.7" fill="none"/>
  <circle cx="64" cy="64" r="30" fill="none" stroke="#39434e" stroke-width="4.4799999999999995" opacity="0.5599999999999999"/>
  <circle cx="64" cy="64" r="40" fill="none" stroke="#39434e" stroke-width="4.4799999999999995" opacity="0.5599999999999999"/>
  <g>
    <g transform="rotate(0 64 64)">
      <circle cx="66" cy="67.5" r="10.72" fill="#000" opacity=".3"/>
      <path d="M71.58 71.58L69 66.77L66.77 69ZM56.42 71.58L61.23 69L59 66.77ZM56.42 56.42L59 61.23L61.23 59ZM71.58 56.42L66.77 59L69 61.23Z" fill="#cfe0ea" stroke="#2c4657" stroke-width="1.6" stroke-linejoin="round"/>
      <circle cx="64" cy="64" r="6.72" fill="#e4edf3" stroke="#2c4657" stroke-width="2"/>
      <circle cx="64" cy="64" r="4.57" fill="none" stroke="#5fe0d0" stroke-width="2"/>
      <path d="M68.57 64L70.38 64M66.28 67.96L67.19 69.53M61.72 67.96L60.81 69.53M59.43 64L57.62 64M61.72 60.04L60.81 58.47M66.28 60.04L67.19 58.47" stroke="#9fc4d6" stroke-width="1" opacity="0.7" fill="none"/>
      <circle cx="64" cy="64" r="2.15" fill="#5fe0d0"/>
    </g>
    <g transform="rotate(18 81.12 76.09)">
      <rect x="77.12" y="74.59" width="12" height="10" rx="5" fill="#000" opacity="0.28"/>
      <rect x="75.12" y="71.09" width="12" height="10" rx="5" fill="#e4edf3" stroke="#2c4657" stroke-width="2"/>
      <rect x="78.12" y="74.09" width="6" height="4" rx="4" fill="none" stroke="#5fe0d0" stroke-width="1.4" opacity="0.85"/>
      <rect x="78.12" y="74.09" width="4.32" height="4" rx="2" fill="#63a888" stroke="#31261b" stroke-width="1"/>
    </g>
    <g transform="rotate(21 84.1 53.78)">
      <rect x="80.1" y="52.28" width="13" height="11" rx="5" fill="#000" opacity="0.28"/>
      <rect x="77.6" y="48.28" width="13" height="11" rx="5" fill="#e4edf3" stroke="#2c4657" stroke-width="2"/>
      <rect x="80" y="50.68" width="8.2" height="6.2" rx="4" fill="none" stroke="#5fe0d0" stroke-width="1.4" opacity="0.85"/>
      <rect x="81.89" y="51.91" width="4.42" height="3.74" rx="2" fill="#63a888" stroke="#3d6a35" stroke-width="1"/>
    </g>
    <g transform="rotate(14 45.1 72.67)">
      <rect x="41.1" y="71.67" width="12" height="9" rx="5" fill="#000" opacity="0.28"/>
      <rect x="39.1" y="68.17" width="12" height="9" rx="5" fill="#e4edf3" stroke="#2c4657" stroke-width="2"/>
      <rect x="42.1" y="71.17" width="6" height="3" rx="4" fill="none" stroke="#5fe0d0" stroke-width="1.4" opacity="0.85"/>
      <rect x="42.1" y="71.17" width="4.32" height="3" rx="2" fill="#63a888" stroke="#31261b" stroke-width="1"/>
    </g>
    <g transform="rotate(-2 63.18 43.58)">
      <circle cx="64.68" cy="46.08" r="5.5" fill="#000" opacity=".28"/><circle cx="63.18" cy="43.58" r="4.5" fill="#cfe0ea" stroke="#2c4657" stroke-width="1.8"/><path d="M65.25 43.58L67.59 43.58M64.85 44.8L66.75 46.17M63.82 45.55L64.54 47.77M62.54 45.55L61.82 47.77M61.51 44.8L59.61 46.17M61.11 43.58L58.77 43.58M61.51 42.36L59.61 40.99M62.54 41.61L61.82 39.39M63.82 41.61L64.54 39.39M64.85 42.36L66.75 40.99" stroke="#7fa6bb" stroke-width="1.4" opacity="0.9" fill="none"/><circle cx="63.18" cy="43.58" r="2.07" fill="#1d2c3b" stroke="#2c4657" stroke-width="1.2"/><circle cx="63.18" cy="43.58" r="1.35" fill="none" stroke="#5fe0d0" stroke-width="1.8"/>
    </g>
    <g transform="rotate(-18 63.38 81.41)">
      <rect x="59.88" y="80.41" width="11" height="9" rx="5" fill="#000" opacity="0.28"/>
      <rect x="57.88" y="76.91" width="11" height="9" rx="5" fill="#e4edf3" stroke="#2c4657" stroke-width="2"/>
      <rect x="60.88" y="79.91" width="5" height="3" rx="4" fill="none" stroke="#5fe0d0" stroke-width="1.4" opacity="0.85"/>
      <rect x="60.88" y="79.91" width="3.96" height="3" rx="2" fill="#63a888" stroke="#31261b" stroke-width="1"/>
    </g>
    <g transform="rotate(0 44.57 56.41)">
      <rect x="39.57" y="53.91" width="14" height="12" rx="3" fill="#000" opacity="0.28"/>
      <rect x="37.57" y="50.41" width="14" height="12" rx="3" fill="#2f4257" stroke="#1d2c3b" stroke-width="2"/>
      <path d="M40.37 52.41V60.41M43.17 52.41V60.41M45.97 52.41V60.41M48.77 52.41V60.41" stroke="#4d7fa8" stroke-width="1" opacity="0.8" fill="none"/>
      <circle cx="44.57" cy="56.41" r="3.6" fill="#cfe0ea" stroke="#1d2c3b" stroke-width="1.6"/>
      <path d="M45.37 56.41L47.93 56.41M45.14 56.98L46.95 58.79M44.57 57.21L44.57 59.77M44 56.98L42.19 58.79M43.77 56.41L41.21 56.41M44 55.84L42.19 54.03M44.57 55.61L44.57 53.05M45.14 55.84L46.95 54.03" stroke="#7fa6bb" stroke-width="0.9" opacity="0.7" fill="none"/>
      <circle cx="44.57" cy="56.41" r="1.2" fill="#5fe0d0"/>
    </g>
    <g transform="rotate(9 94.91 76.22)">
      <rect x="91.91" y="75.72" width="10" height="8" rx="5" fill="#000" opacity="0.28"/>
      <rect x="89.91" y="72.22" width="10" height="8" rx="5" fill="#e4edf3" stroke="#2c4657" stroke-width="2"/>
      <rect x="92.91" y="75.22" width="4" height="2" rx="4" fill="none" stroke="#5fe0d0" stroke-width="1.4" opacity="0.85"/>
      <rect x="92.91" y="75.22" width="3.6" height="2" rx="2" fill="#63a888" stroke="#31261b" stroke-width="1"/>
    </g>
    <g transform="rotate(-20 36.23 44.99)">
      <rect x="32.73" y="44.99" width="11" height="7" rx="5" fill="#000" opacity="0.28"/>
      <rect x="30.73" y="41.49" width="11" height="7" rx="5" fill="#e4edf3" stroke="#2c4657" stroke-width="2"/>
      <rect x="33.73" y="44.49" width="3.96" height="1" rx="2" fill="#63a888" stroke="#31261b" stroke-width="1"/>
    </g>
    <g transform="rotate(-9 67.54 93.6)">
      <rect x="62.54" y="90.6" width="13" height="11" rx="2" fill="#000" opacity="0.28"/>
      <rect x="61.04" y="88.1" width="13" height="11" rx="2" fill="#3a4550" stroke="#1d2c3b" stroke-width="2"/>
      <circle cx="64.94" cy="93.6" r="3" fill="#cfe0ea" stroke="#1d2c3b" stroke-width="1.4"/>
      <circle cx="70.14" cy="93.6" r="2.6" fill="#cfe0ea" stroke="#1d2c3b" stroke-width="1.4"/>
      <circle cx="64.94" cy="93.6" r="1" fill="#5fe0d0"/>
    </g>
    <g transform="rotate(-3 77.38 32.37)">
      <rect x="73.88" y="32.37" width="11" height="7" rx="5" fill="#000" opacity="0.28"/>
      <rect x="71.88" y="28.87" width="11" height="7" rx="5" fill="#e4edf3" stroke="#2c4657" stroke-width="2"/>
      <rect x="74.88" y="31.87" width="3.96" height="1" rx="2" fill="#63a888" stroke="#31261b" stroke-width="1"/>
    </g>
    <g transform="rotate(8 31.12 69.19)">
      <rect x="27.12" y="67.19" width="12" height="11" rx="4" fill="#000" opacity="0.28"/>
      <rect x="25.12" y="63.69" width="12" height="11" rx="4" fill="#e4edf3" stroke="#2c4657" stroke-width="2"/>
      <rect x="28.72" y="66.99" width="4.8" height="4.4" rx="2" fill="#63a888" stroke="#3d6a35" stroke-width="1"/>
    </g>
    <g transform="rotate(16 83.53 88.78)">
      <rect x="80.03" y="87.78" width="11" height="9" rx="5" fill="#000" opacity="0.28"/>
      <rect x="78.03" y="84.28" width="11" height="9" rx="5" fill="#e4edf3" stroke="#2c4657" stroke-width="2"/>
      <rect x="81.03" y="87.28" width="5" height="3" rx="4" fill="none" stroke="#5fe0d0" stroke-width="1.4" opacity="0.85"/>
      <rect x="81.03" y="87.28" width="3.96" height="3" rx="2" fill="#63a888" stroke="#31261b" stroke-width="1"/>
    </g>
    <g transform="rotate(-17 52.17 33.59)">
      <rect x="48.67" y="33.09" width="11" height="8" rx="5" fill="#000" opacity="0.28"/>
      <rect x="46.67" y="29.59" width="11" height="8" rx="5" fill="#e4edf3" stroke="#2c4657" stroke-width="2"/>
      <rect x="49.67" y="32.59" width="5" height="2" rx="4" fill="none" stroke="#5fe0d0" stroke-width="1.4" opacity="0.85"/>
      <rect x="49.67" y="32.59" width="3.96" height="2" rx="2" fill="#63a888" stroke="#31261b" stroke-width="1"/>
    </g>
    <g transform="rotate(14 43.36 84.39)">
      <rect x="37.86" y="81.39" width="14" height="11" rx="1" fill="#000" opacity="0.28"/>
      <rect x="36.36" y="78.89" width="14" height="11" rx="1" fill="#1d2c3b" stroke="#12202c" stroke-width="2"/>
      <path d="M38.69 80.89V87.89M41.03 80.89V87.89M43.36 80.89V87.89M45.69 80.89V87.89M48.03 80.89V87.89" stroke="#4d7fa8" stroke-width="1.8" opacity="0.95" fill="none"/>
      <rect x="37.96" y="80.49" width="10.8" height="7.8" rx="1" fill="none" stroke="#5fe0d0" stroke-width="0.8" opacity="0.55"/>
    </g>
    <g transform="rotate(-4 89.14 40.98)">
      <rect x="85.14" y="40.48" width="12" height="8" rx="5" fill="#000" opacity="0.28"/>
      <rect x="83.14" y="36.98" width="12" height="8" rx="5" fill="#e4edf3" stroke="#2c4657" stroke-width="2"/>
      <rect x="86.14" y="39.98" width="6" height="2" rx="4" fill="none" stroke="#5fe0d0" stroke-width="1.4" opacity="0.85"/>
      <rect x="86.14" y="39.98" width="4.32" height="2" rx="2" fill="#63a888" stroke="#31261b" stroke-width="1"/>
    </g>
    <g transform="rotate(-17 99.16 87.88)">
      <rect x="95.16" y="86.88" width="12" height="9" rx="4" fill="#000" opacity="0.28"/>
      <rect x="93.16" y="83.38" width="12" height="9" rx="4" fill="#cfe0ea" stroke="#2c4657" stroke-width="2"/>
      <circle cx="99.16" cy="87.88" r="2.34" fill="none" stroke="#5fe0d0" stroke-width="1.4"/>
    </g>
    <g transform="rotate(7 102.65 42.63)">
      <rect x="99.65" y="43.13" width="10" height="6" rx="5" fill="#000" opacity="0.28"/>
      <rect x="97.65" y="39.63" width="10" height="6" rx="5" fill="#e4edf3" stroke="#2c4657" stroke-width="2"/>
    </g>
    <g transform="rotate(14 27.16 87.58)">
      <rect x="23.66" y="88.08" width="11" height="6" rx="5" fill="#000" opacity="0.28"/>
      <rect x="21.66" y="84.58" width="11" height="6" rx="5" fill="#e4edf3" stroke="#2c4657" stroke-width="2"/>
    </g>
    <g transform="rotate(10 57.31 21.63)">
      <rect x="53.81" y="20.63" width="11" height="9" rx="3" fill="#000" opacity="0.28"/>
      <rect x="51.81" y="17.13" width="11" height="9" rx="3" fill="#2f4257" stroke="#1d2c3b" stroke-width="2"/>
      <path d="M54.01 19.13V24.13M56.21 19.13V24.13M58.41 19.13V24.13M60.61 19.13V24.13" stroke="#4d7fa8" stroke-width="1" opacity="0.7" fill="none"/>
      <circle cx="57.31" cy="21.63" r="1.98" fill="none" stroke="#4d7fa8" stroke-width="1.4"/>
    </g>
    <g transform="rotate(-3 71.4 106.51)">
      <rect x="67.9" y="106.01" width="11" height="8" rx="5" fill="#000" opacity="0.28"/>
      <rect x="65.9" y="102.51" width="11" height="8" rx="5" fill="#e4edf3" stroke="#2c4657" stroke-width="2"/>
      <rect x="68.9" y="105.51" width="5" height="2" rx="4" fill="none" stroke="#5fe0d0" stroke-width="1.4" opacity="0.85"/>
      <rect x="68.9" y="105.51" width="3.96" height="2" rx="2" fill="#63a888" stroke="#31261b" stroke-width="1"/>
    </g>
    <g transform="rotate(5 107.03 67.78)">
      <rect x="103.53" y="67.28" width="11" height="8" rx="3" fill="#000" opacity="0.28"/>
      <rect x="101.53" y="63.78" width="11" height="8" rx="3" fill="#2f4257" stroke="#1d2c3b" stroke-width="2"/>
      <rect x="103.53" y="66.18" width="7" height="3.2" rx="1.5" fill="#8fd8ff" stroke="#1d2c3b" stroke-width="1"/>
      <path d="M103.36 65.78V69.78M105.2 65.78V69.78M107.03 65.78V69.78M108.86 65.78V69.78M110.7 65.78V69.78" stroke="#4d7fa8" stroke-width="1" opacity="0.7" fill="none"/>
    </g>
    <g transform="rotate(18 23.06 48.13)">
      <rect x="20.06" y="48.63" width="10" height="6" rx="5" fill="#000" opacity="0.28"/>
      <rect x="18.06" y="45.13" width="10" height="6" rx="5" fill="#e4edf3" stroke="#2c4657" stroke-width="2"/>
    </g>
    <g transform="rotate(-13 89.15 27.92)">
      <rect x="86.65" y="27.42" width="9" height="8" rx="5" fill="#000" opacity="0.28"/>
      <rect x="84.65" y="23.92" width="9" height="8" rx="5" fill="#e4edf3" stroke="#2c4657" stroke-width="2"/>
      <rect x="87.65" y="26.92" width="3" height="2" rx="4" fill="none" stroke="#5fe0d0" stroke-width="1.4" opacity="0.85"/>
      <rect x="87.65" y="26.92" width="3.24" height="2" rx="2" fill="#63a888" stroke="#31261b" stroke-width="1"/>
    </g>
    <g transform="rotate(-18 40.87 99.28)">
      <rect x="36.87" y="97.78" width="12" height="10" rx="3" fill="#000" opacity="0.28"/>
      <rect x="34.87" y="94.28" width="12" height="10" rx="3" fill="#37485c" stroke="#1d2c3b" stroke-width="2"/>
      <path d="M37.27 96.28V102.28M39.67 96.28V102.28M42.07 96.28V102.28M44.47 96.28V102.28" stroke="#5fe0d0" stroke-width="1" opacity="0.6" fill="none"/>
      <rect x="37.27" y="97.88" width="7.2" height="2.8" rx="1.4" fill="#cfe0ea" stroke="#1d2c3b" stroke-width="1"/>
    </g>
    <g transform="rotate(22 38.54 28.76)">
      <rect x="35.04" y="28.76" width="11" height="7" rx="5" fill="#000" opacity="0.28"/>
      <rect x="33.04" y="25.26" width="11" height="7" rx="5" fill="#e4edf3" stroke="#2c4657" stroke-width="2"/>
      <rect x="36.04" y="28.26" width="3.96" height="1" rx="2" fill="#63a888" stroke="#31261b" stroke-width="1"/>
    </g>
    <g transform="rotate(13 85.95 100.24)">
      <rect x="81.45" y="99.74" width="13" height="8" rx="3" fill="#000" opacity="0.28"/>
      <rect x="79.45" y="96.24" width="13" height="8" rx="3" fill="#3a4550" stroke="#1d2c3b" stroke-width="2"/>
      <circle cx="85.95" cy="100.24" r="2.72" fill="#e4edf3" stroke="#1d2c3b" stroke-width="1.6"/>
      <path d="M85.41 97.52V102.96" stroke="#2c4657" stroke-width="1.4" fill="none"/>
      <circle cx="86.77" cy="100.24" r="1" fill="#5fe0d0"/>
    </g>
    <g transform="rotate(-17 107.14 56.84)">
      <rect x="103.64" y="57.34" width="11" height="6" rx="5" fill="#000" opacity="0.28"/>
      <rect x="101.64" y="53.84" width="11" height="6" rx="5" fill="#e4edf3" stroke="#2c4657" stroke-width="2"/>
    </g>
    <g transform="rotate(21 21 56.01)">
      <rect x="17.5" y="56.51" width="11" height="6" rx="5" fill="#000" opacity="0.28"/>
      <rect x="15.5" y="53.01" width="11" height="6" rx="5" fill="#e4edf3" stroke="#2c4657" stroke-width="2"/>
    </g>
  </g>
  <circle cx="64" cy="64" r="36" fill="none" stroke="#5fe0d0" stroke-width="1.8" opacity=".5" stroke-dasharray="9 7"/>
  <path d="M64 24L64 104M98.64 44L29.36 84" stroke="#5fe0d0" stroke-width="1.6" opacity=".38" fill="none"/>
</svg>
