<svg xmlns="http://www.w3.org/2000/svg" viewBox="0 0 128 128" width="128" height="128">
  <title>Dwellings — stage 9 of 59: antiquity amphitheatre and aqueduct (7 buildings)</title>
  <!-- Generated by design/generate-dwellings.mjs — edit the generator, not this. -->
  <path d="M70.49 66.62L90.88 74.86M63.27 70.96L60.97 92.83M57.15 65.46L35.64 70.03M61.61 57.42L54.08 36.76" stroke="#a89574" stroke-width="4.6" stroke-linecap="round" opacity="0.5" fill="none"/>
  <path d="M37.34 92.28L102.2 71.21" stroke="#b6a887" stroke-width="5.8" opacity=".45" fill="none"/><path d="M38.26 95.14L36.41 89.43M46.37 92.5L44.52 86.8M54.48 89.87L52.62 84.16M62.59 87.23L60.73 81.53M70.69 84.6L68.84 78.89M78.8 81.97L76.95 76.26M86.91 79.33L85.05 73.62M95.02 76.7L93.16 70.99M103.12 74.06L101.27 68.36" stroke="#b6a887" stroke-width="1.6" opacity=".85" fill="none"/><path d="M37.34 92.28L102.2 71.21" stroke="#e0d7bf" stroke-width="3.4" stroke-linecap="round" fill="none"/>
  <g>
    <g transform="rotate(0 64 64)">
      <ellipse cx="65.5" cy="66.5" rx="10" ry="8" fill="#000" opacity=".3"/>
      <ellipse cx="64" cy="64" rx="10" ry="8" fill="#e0d7bf" stroke="#31261b" stroke-width="2"/>
      <path d="M71.2 64L73.8 64M70.85 65.78L73.32 66.42M69.82 67.39L71.93 68.61M68.23 68.66L69.76 70.34M66.22 69.48L67.03 71.46M64 69.76L64 71.84M61.78 69.48L60.97 71.46M59.77 68.66L58.24 70.34M58.18 67.39L56.07 68.61M57.15 65.78L54.68 66.42M56.8 64L54.2 64M57.15 62.22L54.68 61.58M58.18 60.61L56.07 59.39M59.77 59.34L58.24 57.66M61.78 58.52L60.97 56.54M64 58.24L64 56.16M66.22 58.52L67.03 56.54M68.23 59.34L69.76 57.66M69.82 60.61L71.93 59.39M70.85 62.22L73.32 61.58" stroke="#a9997a" stroke-width="1.2" opacity=".9" fill="none"/>
      <ellipse cx="64" cy="64" rx="6.2" ry="4.96" fill="#c8a877" stroke="#31261b" stroke-width="1.4"/>
      <ellipse cx="64" cy="64" rx="3.4" ry="2.72" fill="#dcc39b" stroke="none"/>
    </g>
    <g transform="rotate(18 81.12 76.09)">
      <rect x="76.62" y="73.59" width="12" height="10" rx="1.5" fill="#000" opacity="0.28"/>
      <rect x="75.12" y="71.09" width="12" height="10" rx="1.5" fill="#b8603c" stroke="#31261b" stroke-width="2"/>
      <path d="M78.12 73.09V79.09M81.12 73.09V79.09M84.12 73.09V79.09" stroke="#8a4327" stroke-width="1" opacity="0.5" fill="none"/>
      <rect x="78.52" y="74.49" width="5.2" height="3.2" rx="1.5" fill="#d8c9a8" stroke="#31261b" stroke-width="1"/>
    </g>
    <g transform="rotate(21 84.1 53.78)">
      <rect x="79.1" y="50.78" width="13" height="11" rx="1.5" fill="#000" opacity="0.28"/>
      <rect x="77.6" y="48.28" width="13" height="11" rx="1.5" fill="#ddd3b8" stroke="#31261b" stroke-width="2"/>
      <rect x="81.1" y="51.78" width="6" height="4" rx="1.5" fill="#c3b696" stroke="#31261b" stroke-width="1"/>
      <circle cx="79.8" cy="50.48" r="1.4" fill="#f3eee0"/><circle cx="79.8" cy="57.08" r="1.4" fill="#f3eee0"/><circle cx="82.67" cy="50.48" r="1.4" fill="#f3eee0"/><circle cx="82.67" cy="57.08" r="1.4" fill="#f3eee0"/><circle cx="85.53" cy="50.48" r="1.4" fill="#f3eee0"/><circle cx="85.53" cy="57.08" r="1.4" fill="#f3eee0"/><circle cx="88.4" cy="50.48" r="1.4" fill="#f3eee0"/><circle cx="88.4" cy="57.08" r="1.4" fill="#f3eee0"/><circle cx="79.8" cy="53.78" r="1.4" fill="#f3eee0"/><circle cx="88.4" cy="53.78" r="1.4" fill="#f3eee0"/>
    </g>
    <g transform="rotate(14 45.1 72.67)">
      <rect x="40.6" y="70.67" width="12" height="9" rx="1.5" fill="#000" opacity="0.28"/>
      <rect x="39.1" y="68.17" width="12" height="9" rx="1.5" fill="#b8603c" stroke="#31261b" stroke-width="2"/>
      <path d="M42.1 70.17V75.17M45.1 70.17V75.17M48.1 70.17V75.17" stroke="#8a4327" stroke-width="1" opacity="0.5" fill="none"/>
      <rect x="42.5" y="71.57" width="5.2" height="2.2" rx="1.5" fill="#d8c9a8" stroke="#31261b" stroke-width="1"/>
    </g>
    <g transform="rotate(-2 63.18 43.58)">
      <rect x="58.18" y="42.08" width="13" height="8" rx="1.5" fill="#000" opacity="0.28"/>
      <rect x="56.68" y="39.58" width="13" height="8" rx="1.5" fill="#e0d7bf" stroke="#31261b" stroke-width="2"/>
      <rect x="59.43" y="41.08" width="7.5" height="5" rx="2" fill="#4f93b8" stroke="#2b5c7d" stroke-width="1.6"/>
      <circle cx="66.33" cy="38.88" r="2.88" fill="#e8eef2" opacity=".16"/><circle cx="64.08" cy="35.28" r="3.96" fill="#e8eef2" opacity=".11"/><circle cx="60.93" cy="31.68" r="5.04" fill="#e8eef2" opacity=".07"/><circle cx="67.68" cy="41.58" r="2.4" fill="#a8724f" stroke="#31261b" stroke-width="1.6"/><circle cx="67.68" cy="41.58" r="1.01" fill="#2b2420"/>
    </g>
    <g transform="rotate(-18 63.38 81.41)">
      <rect x="59.38" y="79.41" width="11" height="9" rx="1.5" fill="#000" opacity="0.28"/>
      <rect x="57.88" y="76.91" width="11" height="9" rx="1.5" fill="#b8603c" stroke="#31261b" stroke-width="2"/>
      <path d="M60.63 78.91V83.91M63.38 78.91V83.91M66.13 78.91V83.91" stroke="#8a4327" stroke-width="1" opacity="0.5" fill="none"/>
      <rect x="61.28" y="80.31" width="4.2" height="2.2" rx="1.5" fill="#d8c9a8" stroke="#31261b" stroke-width="1"/>
    </g>
    <g transform="rotate(0 44.57 56.41)">
      <circle cx="44.57" cy="56.41" r="6" fill="#7f6a4a" opacity=".3"/>
      <circle cx="41.21" cy="54.01" r="2.2" fill="#8d857a" stroke="#5c554c" stroke-width="1.2"/>
      <circle cx="47.93" cy="54.01" r="2.2" fill="#8d857a" stroke="#5c554c" stroke-width="1.2"/>
      <circle cx="44.57" cy="59.29" r="2.2" fill="#8d857a" stroke="#5c554c" stroke-width="1.2"/>
      <rect x="39.53" y="52.69" width="10.08" height="7.44" rx="3" fill="#b3aa9c" stroke="#5c554c" stroke-width="1.8"/>
    </g>
  </g>
</svg>
