<svg xmlns="http://www.w3.org/2000/svg" viewBox="0 0 64 64" width="64" height="64">
  <title>antiquity — War Chariot</title>
  <!-- Generated by design/generate-units.mjs — do not edit by hand. -->
  <g id="war-chariot">
    <line x1="24" y1="34" x2="14" y2="31" stroke="#7a5230" stroke-width="2.4" stroke-linecap="round"/>
    <path d="M14 40 Q16 30 26 30 L44 30 Q52 30 54 36 L54 42 L48 42 L47 36 L24 37 L23 44 L17 44 Z" fill="#a97445" stroke="#191114" stroke-width="1.7" stroke-linejoin="round"/>
    <line x1="18" y1="42" x2="16" y2="54" stroke="#7a5230" stroke-width="3.5" stroke-linecap="round"/>
    <line x1="48" y1="42" x2="51" y2="54" stroke="#7a5230" stroke-width="3.5" stroke-linecap="round"/>
    <polygon points="52,36 60,28 58,22 50,28" fill="#a97445" stroke="#191114" stroke-width="1.7" stroke-linejoin="round"/>
    <rect x="2" y="27" width="12" height="11" rx="2" fill="#7a5230" stroke="#191114" stroke-width="1.7" stroke-linejoin="round"/>
    <path d="M4 29 L12 29 L12 32 L4 32 Z" fill="#c0392b"/>
    <circle cx="9" cy="46" r="7.5" fill="#a97445" stroke="#191114" stroke-width="1.7" stroke-linejoin="round"/>
    <circle cx="9" cy="46" r="3" fill="#c98b3a" stroke="#191114" stroke-width="1.7" stroke-linejoin="round"/>
    <circle cx="8" cy="22" r="5" fill="#d8a06c" stroke="#191114" stroke-width="1.7" stroke-linejoin="round"/>
  </g>
</svg>
