<svg xmlns="http://www.w3.org/2000/svg" viewBox="0 0 64 64" width="64" height="64">
  <title>middleAges — Drakkar</title>
  <!-- Generated by design/generate-units.mjs — do not edit by hand. -->
  <g id="drakkar">
    <line x1="32" y1="6" x2="32" y2="34" stroke="#7a5230" stroke-width="2.6" stroke-linecap="round"/>
    <polygon points="33,8 53,12 53,28 33,32" fill="#efe6d2" stroke="#191114" stroke-width="1.7" stroke-linejoin="round"/>
    <path d="M36 14 L51 17 L51 20 L36 18 Z" fill="#c0392b"/>
    <path d="M36 22 L51 24 L51 27 L36 26 Z" fill="#c0392b"/>
    <path d="M6 40 L58 40 L50 50 L14 50 Z" fill="#7a5230" stroke="#191114" stroke-width="1.7" stroke-linejoin="round"/>
    <path d="M6 40 Q0 32 6 26 Q12 26 10 32 Q14 34 12 40 Z" fill="#a97445" stroke="#191114" stroke-width="1.7" stroke-linejoin="round"/>
    <circle cx="6" cy="30" r="1.6" fill="#c0392b" stroke="#191114" stroke-width="1.7" stroke-linejoin="round"/>
    <circle cx="16" cy="38" r="4" fill="#b9c2cc" stroke="#191114" stroke-width="1.7" stroke-linejoin="round"/>
    <circle cx="24" cy="38" r="4" fill="#c0392b" stroke="#191114" stroke-width="1.7" stroke-linejoin="round"/>
    <circle cx="32" cy="38" r="4" fill="#b9c2cc" stroke="#191114" stroke-width="1.7" stroke-linejoin="round"/>
    <circle cx="40" cy="38" r="4" fill="#c0392b" stroke="#191114" stroke-width="1.7" stroke-linejoin="round"/>
  </g>
</svg>
