<svg xmlns="http://www.w3.org/2000/svg" viewBox="0 0 64 64" width="64" height="64">
  <title>modern — Infantry Squad</title>
  <!-- Generated by design/generate-units.mjs — do not edit by hand. -->
  <g id="infantry-squad">
    <line x1="16" y1="40" x2="14" y2="50" stroke="#3e4a2b" stroke-width="4" stroke-linecap="round"/>
    <rect x="12" y="26" width="11" height="15" rx="2.5" fill="#5f6f42" stroke="#191114" stroke-width="1.7" stroke-linejoin="round"/>
    <circle cx="18" cy="21" r="5" fill="#3e4a2b" stroke="#191114" stroke-width="1.7" stroke-linejoin="round"/>
    <line x1="15" y1="34" x2="28" y2="28" stroke="#4a5058" stroke-width="2" stroke-linecap="round"/>
    <line x1="48" y1="40" x2="50" y2="50" stroke="#3e4a2b" stroke-width="4" stroke-linecap="round"/>
    <rect x="44" y="26" width="11" height="15" rx="2.5" fill="#5f6f42" stroke="#191114" stroke-width="1.7" stroke-linejoin="round"/>
    <circle cx="49" cy="21" r="5" fill="#3e4a2b" stroke="#191114" stroke-width="1.7" stroke-linejoin="round"/>
    <line x1="46" y1="34" x2="59" y2="28" stroke="#4a5058" stroke-width="2" stroke-linecap="round"/>
    <line x1="30" y1="44" x2="28" y2="54" stroke="#3e4a2b" stroke-width="4.5" stroke-linecap="round"/>
    <line x1="35" y1="44" x2="38" y2="54" stroke="#3e4a2b" stroke-width="4.5" stroke-linecap="round"/>
    <rect x="27" y="28" width="13" height="17" rx="3" fill="#5f6f42" stroke="#191114" stroke-width="1.7" stroke-linejoin="round"/>
    <circle cx="33" cy="22" r="6" fill="#3e4a2b" stroke="#191114" stroke-width="1.7" stroke-linejoin="round"/>
    <line x1="29" y1="37" x2="44" y2="30" stroke="#4a5058" stroke-width="2.4" stroke-linecap="round"/>
    <path d="M29 31 L38 31 L38 34 L29 34 Z" fill="#c0392b"/>
  </g>
</svg>
