<svg xmlns="http://www.w3.org/2000/svg" viewBox="0 0 64 64" width="64" height="64">
  <title>renaissance — Hussar</title>
  <!-- Generated by design/generate-units.mjs — do not edit by hand. -->
  <g id="hussar">
    <path d="M12 40 Q14 30 24 30 L42 30 Q50 30 52 36 L52 42 L46 42 L45 36 L22 37 L21 44 L15 44 Z" fill="#a97445" stroke="#191114" stroke-width="1.7" stroke-linejoin="round"/>
    <line x1="16" y1="42" x2="14" y2="54" stroke="#7a5230" stroke-width="4" stroke-linecap="round"/>
    <line x1="46" y1="42" x2="49" y2="54" stroke="#7a5230" stroke-width="4" stroke-linecap="round"/>
    <polygon points="50,36 58,28 56,22 48,28" fill="#a97445" stroke="#191114" stroke-width="1.7" stroke-linejoin="round"/>
    <path d="M18 26 Q10 14 20 6 Q22 16 26 24 Z" fill="#efe6d2" stroke="#191114" stroke-width="1.7" stroke-linejoin="round"/>
    <path d="M24 26 Q18 12 28 5 Q29 16 32 24 Z" fill="#efe6d2" stroke="#191114" stroke-width="1.7" stroke-linejoin="round"/>
    <rect x="26" y="12" width="12" height="16" rx="3" fill="#6b3f6e" stroke="#191114" stroke-width="1.7" stroke-linejoin="round"/>
    <circle cx="32" cy="9" r="5.5" fill="#d8a06c" stroke="#191114" stroke-width="1.7" stroke-linejoin="round"/>
    <path d="M40 20 Q52 12 56 4 L58 8 Q52 16 42 24 Z" fill="#b9c2cc" stroke="#191114" stroke-width="1.7" stroke-linejoin="round"/>
    <path d="M27 15 L37 15 L37 19 L27 19 Z" fill="#c0392b"/>
  </g>
</svg>
